<svg fill="none" height="24" viewBox="0 0 24 24" width="24" xmlns="http://www.w3.org/2000/svg"><g fill="#292d32"><path d="m8 22.3199c-.28 0-.57002-.07-.83002-.21-.57-.3-.91998-.9-.91998-1.54v-1.4199c-3.02-.31-5-2.5301-5-5.7101v-5.99996c0-3.44 2.31-5.75 5.75-5.75h10c3.44 0 5.75 2.31 5.75 5.75v5.99996c0 3.44-2.31 5.75-5.75 5.75h-3.77l-4.26003 2.8401c-.29.19-.62997.2899-.96997.2899zm-1-19.13997c-2.58 0-4.25 1.67-4.25 4.25v6.00007c0 2.58 1.67 4.25 4.25 4.25.41 0 .75.34.75.75v2.13c0 .13.08.19.13.22.05001.03.15001.06.26001-.01l4.44999-2.96c.12-.08.27-.13.42-.13h4c2.58 0 4.25-1.67 4.25-4.25v-6.00007c0-2.58-1.67-4.25-4.25-4.25z"/><path d="m11.9998 12.1099c-.41 0-.75-.34-.75-.75v-.21c0-1.16.85-1.73001 1.17-1.95001.37-.25.49-.41999.49-.67999 0-.5-.41-.91004-.91-.91004s-.91.41004-.91.91004c0 .41-.34.75-.75.75-.40996 0-.74996-.34-.74996-.75 0-1.33 1.07996-2.41004 2.40996-2.41004s2.41 1.08004 2.41 2.41004c0 1.14-.84 1.71-1.15 1.92-.39.26-.51.43-.51.71v.21c0 .42-.34.75-.75.75z"/><path d="m12 14.6001c-.42 0-.75-.34-.75-.75s.34-.75.75-.75.75.34.75.75-.33.75-.75.75z"/></g></svg>