<svg fill="none" height="24" viewBox="0 0 24 24" width="24" xmlns="http://www.w3.org/2000/svg"><path d="m7.00021 2c-1.30018.12853-2.17536.41902-2.82858 1.07554-1.17163 1.17755-1.17163 3.07278-1.17163 6.86325v4.02041c0 3.7905 0 5.6857 1.17163 6.8633 1.17164 1.1775 3.05735 1.1775 6.82877 1.1775h2.0001c3.7714 0 5.6572 0 6.8288-1.1775 1.0633-1.0687 1.1616-2.7169 1.1707-5.8459" stroke="#141b34" stroke-linecap="round" stroke-linejoin="round" stroke-width="1.5"/><path d="m12.0068 6.83559c-.0908-.40413-.4921-.65815-.8962-.56735s-.6582.49203-.5674.89617zm.0825 3.78901.7318-.1644zm7.7206-3.39418c.0928-.40369-.1593-.80614-.563-.89888s-.8061.15934-.8989.56304zm-1.5492 3.39418-.731-.1679-.0008.0035zm-5.7721.6281.4255-.6175zm5.3728 0 .4256.6176zm4.3469-5.49253c0-.41422-.3358-.75-.75-.75s-.75.33578-.75.75zm-1.5 4.67733c0 .4142.3358.75.75.75s.75-.3358.75-.75zm-10.9583-5.3125c0 .13948-.05192.22001-.05286.22153-.00431.00695.00744-.01299.05517-.05951.09539-.09298.25929-.22009.49779-.37453.4712-.30507 1.1326-.65248 1.8516-.98305.7156-.32901 1.4657-.63111 2.1054-.84922.3201-.10915.6047-.19457.8386-.25188.2467-.06043.3929-.07834.4543-.07834v-1.5c-.2463 0-.5341.05354-.8112.12142-.2898.07101-.6188.17076-.9658.28906-.6945.23679-1.4924.55871-2.2479.90612-.7522.34585-1.48498.72728-2.0402 1.08677-.27468.17784-.53203.36694-.72959.5595-.09876.09626-.20141.21144-.2835.34401-.07872.12715-.17181.32381-.17181.56812zm13 0c0-.24431-.0931-.44097-.1718-.56812-.0821-.13257-.1848-.24775-.2835-.34401-.1976-.19256-.4549-.38166-.7296-.5595-.5552-.35949-1.288-.74092-2.0402-1.08677-.7555-.34741-1.5534-.66933-2.2479-.90612-.347-.1183-.676-.21805-.9658-.28906-.2771-.06788-.5649-.12142-.8112-.12142v1.5c.0614 0 .2076.01791.4543.07834.2339.05731.5185.14273.8386.25188.6397.21811 1.3898.52021 2.1054.84922.719.33057 1.3804.67798 1.8516.98305.2385.15444.4024.28155.4978.37453.0477.04652.0595.06646.0552.05951-.001-.00152-.0529-.08205-.0529-.22153zm-1.5 0c0-.13948.0519-.22001.0529-.22153.0043-.00695-.0075.01299-.0552.05951-.0954.09298-.2593.2201-.4978.37453-.4712.30507-1.1326.65248-1.8516.98305-.7156.32901-1.4657.63111-2.1054.84922-.3201.10915-.6047.19458-.8386.25188-.2467.06043-.3929.07834-.4543.07834v1.5c.2463 0 .5341-.05354.8112-.12142.2898-.07101.6188-.17076.9658-.28906.6945-.23679 1.4924-.55871 2.2479-.90612.7522-.34585 1.485-.72728 2.0402-1.08677.2747-.17784.532-.36694.7296-.5595.0987-.09626.2014-.21144.2835-.34401.0787-.12715.1718-.32381.1718-.56812zm-13 0c0 .24431.09309.44097.17181.56812.08209.13257.18474.24775.2835.34401.19756.19256.45491.38166.72959.5595.55522.35949 1.288.74092 2.0402 1.08677.7555.34741 1.5534.66933 2.2479.90612.347.1183.676.21805.9658.28906.2771.06788.5649.12142.8112.12142v-1.5c-.0614 0-.2076-.01791-.4543-.07834-.2339-.0573-.5185-.14273-.8386-.25188-.6397-.21811-1.3898-.52021-2.1054-.84922-.719-.33057-1.3804-.67798-1.8516-.98305-.2385-.15443-.4024-.28155-.49779-.37453-.04773-.04652-.05948-.06646-.05517-.05951.00094.00152.05286.08205.05286.22153zm2.2932 2.03941.8144 3.62459 1.4635-.3288-.8143-3.62461zm7.8048-.26983-.8183 3.56212 1.4619.3358.8183-3.56208zm-6.285 4.97572c.8778.6048 2.0187.8797 3.112.8797s2.2342-.2749 3.112-.8797l-.8511-1.2351c-.5683.3915-1.3908.6148-2.2609.6148s-1.6926-.2233-2.2609-.6148zm5.4659-1.4101c-.0252.1123-.0703.1593-.093.175l.8511 1.2351c.4066-.2802.6191-.6971.7054-1.0813zm-6.1713.3288c.0863.3842.2988.8011.7054 1.0813l.8511-1.2351c-.0227-.0157-.0678-.0627-.093-.175zm9.3507-5.02883v4.67733h1.5v-4.67733z" fill="#141b34"/></svg>