<?xml version="1.0" standalone="no"?>
<!DOCTYPE svg PUBLIC "-//W3C//DTD SVG 20010904//EN"
 "http://www.w3.org/TR/2001/REC-SVG-20010904/DTD/svg10.dtd">
<svg version="1.0" xmlns="http://www.w3.org/2000/svg"
 width="512.000000pt" height="512.000000pt" viewBox="0 0 512.000000 512.000000"
 preserveAspectRatio="xMidYMid meet">

<g transform="translate(0.000000,512.000000) scale(0.100000,-0.100000)"
fill="#000000" stroke="none">
<path d="M645 5110 c-160 -32 -304 -142 -374 -285 -59 -122 -56 -17 -56 -1840
0 -1602 1 -1683 18 -1740 56 -182 185 -312 367 -371 48 -16 105 -18 473 -22
l417 -3 0 -375 c0 -412 2 -429 59 -458 66 -35 66 -35 349 192 109 88 208 165
219 172 19 13 40 -1 261 -179 260 -207 282 -220 340 -185 17 9 35 28 41 41 7
16 11 153 11 408 l0 385 590 0 c637 0 640 0 674 52 14 22 16 110 16 802 0 852
2 820 -59 846 -41 17 -92 6 -122 -26 l-24 -26 -3 -289 -3 -289 -1602 -2 -1602
-3 -57 -22 c-31 -12 -78 -34 -103 -48 l-45 -27 0 1416 c0 1405 0 1416 21 1470
26 70 92 139 167 174 l57 27 703 5 704 5 24 28 c41 48 29 128 -26 160 -26 15
-91 17 -712 16 -375 -1 -701 -5 -723 -9z m3195 -3720 l0 -320 -535 0 -535 0 0
104 0 105 184 3 c179 3 185 4 210 27 51 48 40 142 -20 170 -23 10 -363 12
-1782 11 l-234 0 -29 -29 c-47 -48 -37 -130 21 -164 23 -14 57 -17 199 -17
l171 0 0 -105 0 -106 -417 3 c-417 3 -418 3 -463 27 -109 57 -171 150 -178
271 -3 60 0 86 18 132 35 94 127 173 227 197 21 5 730 9 1601 10 l1562 1 0
-320z m-1280 -587 c0 -452 -1 -475 -17 -461 -39 33 -281 227 -326 261 -51 39
-91 47 -129 26 -11 -6 -101 -76 -199 -156 l-179 -144 0 475 0 476 425 0 425 0
0 -477z"/>
<path d="M2676 4792 c-502 -233 -716 -337 -733 -356 -27 -32 -30 -76 -6 -117
13 -22 58 -48 215 -120 l198 -92 0 -318 c0 -301 1 -321 22 -376 34 -92 96
-145 268 -230 163 -80 305 -131 460 -165 90 -19 134 -22 315 -22 180 0 225 3
312 22 183 40 374 113 543 208 99 56 144 100 179 173 l26 56 3 326 3 327 189
87 c105 49 196 95 204 104 45 49 39 124 -12 159 -52 36 -1408 654 -1442 658
-29 3 -155 -52 -744 -324z m1307 -159 c306 -141 554 -260 550 -264 -5 -3 -258
-121 -564 -262 l-555 -256 -555 256 c-305 140 -558 259 -562 263 -8 7 1085
518 1113 519 8 1 266 -114 573 -256z m-959 -837 c217 -100 371 -166 390 -166
18 0 190 73 436 186 223 103 409 189 413 191 4 3 7 -112 5 -255 l-3 -261 -29
-30 c-35 -36 -237 -138 -357 -180 -169 -58 -276 -76 -464 -76 -254 0 -415 40
-673 166 -112 55 -148 78 -163 102 -17 29 -19 53 -19 284 l0 252 53 -24 c28
-12 214 -98 411 -189z"/>
</g>
</svg>
