<svg xmlns="http://www.w3.org/2000/svg" viewBox="0 0 64 64"><defs><style>.cls-1{fill:#fff;}.cls-1,.cls-2{stroke:#54596e;stroke-linecap:round;stroke-linejoin:round;stroke-width:2px;}.cls-2,.cls-3{fill:#54596e;}.cls-3{opacity:0.1;}.cls-4{fill:#f99;}.cls-5{fill:#55a6ff;}</style></defs><title>Walle-female</title><g id="Walle-female"><path class="cls-1" d="M49.72,16.17C49.72,9,41.79,1,32,1S14.28,9,14.28,16.17,22.21,27,32,27,49.72,23.35,49.72,16.17Z"/><path class="cls-2" d="M45,15.34c0-4.45-5.82-9.41-13-9.41s-13,5-13,9.41,5.82,6.73,13,6.73S45,19.8,45,15.34Z"/><path class="cls-1" d="M50,39C50,23,41.94,31,32,31S14,23,14,39s8.06,24,18,24S50,55,50,39Z"/><path class="cls-3" d="M32,54c-8.92,0-16.3-6.45-17.73-19.34A30.91,30.91,0,0,0,14,39c0,16,8.06,24,18,24s18-8,18-24a30.91,30.91,0,0,0-.27-4.32C48.3,47.55,40.92,54,32,54Z"/><circle class="cls-4" cx="25" cy="38" r="2"/><path class="cls-1" d="M18,39c0-7.73-1.34-10-3-10s-3-.73-3,7,1.34,21,3,21S18,46.73,18,39Z"/><path class="cls-1" d="M46,39c0-7.73,1.34-10,3-10s3-.73,3,7-1.34,21-3,21S46,46.73,46,39Z"/><ellipse class="cls-5" cx="37" cy="15" rx="3.7" ry="2.47" transform="translate(-2.89 16.55) rotate(-24.3)"/><ellipse class="cls-5" cx="27" cy="15" rx="2.47" ry="3.7" transform="translate(2.22 33.44) rotate(-65.7)"/></g></svg>