<svg viewBox="0 0 24 24" xmlns="http://www.w3.org/2000/svg"><path d="m21 10a16.84028 16.84028 0 0 0 -9 3.24367 16.84028 16.84028 0 0 0 -9-3.24367v2.96005a2.00363 2.00363 0 0 0 -2 2.00727v1.00368c0 1.10856 2 2.20751 2 2.20751v2.00726a14.868 14.868 0 0 1 7.41687 2.55049 15.08968 15.08968 0 0 1 1.58313 1.26374 15.08968 15.08968 0 0 1 1.58313-1.26379 14.868 14.868 0 0 1 7.41687-2.55049v-2.20751a2.00366 2.00366 0 0 0 2-2.00721v-1.00368a2.00363 2.00363 0 0 0 -2-2.00727zm-9 11.42213a16.84123 16.84123 0 0 0 -7-2.996v-6.151a14.80025 14.80025 0 0 1 5.41687 2.28267 15.08968 15.08968 0 0 1 1.58313 1.26374 15.08968 15.08968 0 0 1 1.58313-1.26379 14.80025 14.80025 0 0 1 5.41687-2.28267v6.151a16.84123 16.84123 0 0 0 -7 2.99605z"/><path d="m11 8h2v1h-2z"/><path d="m11 4h2v1h-2z"/><path d="m11 10h2v1h-2z"/><path d="m9 5a1 1 0 0 0 1-1 .983.983 0 0 0 -.99-.99.99506.99506 0 1 0 -.01 1.99z"/><circle cx="15" cy="4" r="1"/><path d="m16 8h-8a3.00328 3.00328 0 0 1 -3-3v-2a3.00328 3.00328 0 0 1 3-3h8a3.00328 3.00328 0 0 1 3 3v2a3.00328 3.00328 0 0 1 -3 3zm-8-6a1.0013 1.0013 0 0 0 -1 1v2a1.0013 1.0013 0 0 0 1 1h8a1.001 1.001 0 0 0 1-1v-2a1.001 1.001 0 0 0 -1-1z"/></svg>